<?xml version="1.0" encoding="utf-8"?>
<!-- Generator: Adobe Illustrator 25.2.1, SVG Export Plug-In . SVG Version: 6.00 Build 0)  -->
<svg version="1.1" id="Camada_1" xmlns="http://www.w3.org/2000/svg" xmlns:xlink="http://www.w3.org/1999/xlink" x="0px" y="0px"
	 viewBox="0 0 24 24" style="enable-background:new 0 0 24 24;" xml:space="preserve">
<style type="text/css">
	.st0{fill:none;}
	.st1{fill:#FFC66E;}
</style>
<g>
	<path class="st0" d="M0,0h24v24H0V0z"/>
</g>
<g>
	<g>
		<path class="st1" d="M12,5V3.2c0-0.5-0.5-0.7-0.9-0.3L8.4,5.7c-0.2,0.2-0.2,0.5,0,0.7l2.8,2.8C11.5,9.5,12,9.2,12,8.8V7
			c3.3,0,6,2.7,6,6c0,2.7-1.8,5-4.3,5.8c-0.4,0.1-0.7,0.5-0.7,1l0,0c0,0.6,0.6,1.2,1.2,1c3.3-1,5.8-4,5.8-7.7C20,8.6,16.4,5,12,5z"
			/>
		<path class="st1" d="M6,13c0-1.3,0.4-2.6,1.2-3.6C7.5,9,7.4,8.5,7.1,8.1l0,0C6.7,7.7,6,7.7,5.6,8.2C4.6,9.5,4,11.2,4,13
			c0,3.6,2.4,6.7,5.8,7.7c0.6,0.2,1.2-0.3,1.2-1l0,0c0-0.4-0.3-0.8-0.7-1C7.8,18,6,15.7,6,13z"/>
	</g>
</g>
</svg>
