<?xml version="1.0" encoding="utf-8"?>
<!-- Generator: Adobe Illustrator 25.2.1, SVG Export Plug-In . SVG Version: 6.00 Build 0)  -->
<svg version="1.1" id="Camada_1" xmlns="http://www.w3.org/2000/svg" xmlns:xlink="http://www.w3.org/1999/xlink" x="0px" y="0px"
	 viewBox="0 0 348.4 348.4" style="enable-background:new 0 0 348.4 348.4;" xml:space="preserve">
<style type="text/css">
	.st0{fill:#FCA120;}
</style>
<g>
	<path class="st0" d="M79.5,282.5c-5.1-2.2-10.8-3.6-15.3-6.7c-10-6.8-14.5-16.9-14.5-29.1c0.1-12.5,0-25,0-37.5c0-1.3,0-2.5,0-4.2
		c-2.2,0-4.1,0-6,0c-13.6-0.2-23-9.6-23.2-23.3c-0.1-4.5-0.3-9,0.5-13.4c2.1-10.9,11-17.7,22.8-18.1c1.8-0.1,3.6,0,5.9,0
		c0-1.5,0-2.6,0-3.7c0-6.1,0-12.2,0-18.2c0.1-6.5,3.2-9.6,9.6-9.7c0.4,0,0.9,0,1.3,0c75.8,0,151.5,0,227.3,0
		c8.1,0,10.9,2.8,10.9,10.9c0,6.7,0,13.4,0,20.5c3,0.2,5.7,0.2,8.4,0.4c11.3,0.9,20.1,9.8,20.7,21c0.2,4.1,0.2,8.3,0,12.5
		c-0.6,11-9.5,20.1-20.6,20.9c-2.6,0.2-5.3,0-8.3,0c-0.1,1.6-0.2,2.8-0.2,4c-0.1,13.7,0.3,27.3-0.2,41c-0.6,16.3-12.1,29-28.1,32
		c-0.5,0.1-1,0.4-1.4,0.6C205.8,282.5,142.6,282.5,79.5,282.5z M49.4,188.9c0-7.7,0-15.1,0-22.4c-9.4-1.1-13.7,0.6-12.9,10.7
		c0,0.3,0,0.6,0,1c0,9.5,1.6,11.1,11.2,10.8C48.2,189.1,48.7,189,49.4,188.9z M298.9,189.1c1.6,0,2.9,0,4.1,0c1,0,1.9,0,2.9-0.1
		c3.4-0.4,5.7-2.6,5.9-6c0.2-3.5,0.2-7,0-10.5c-0.1-3-1.8-5.2-4.7-5.7c-2.6-0.5-5.4-0.4-8.3-0.6C298.9,174,298.9,181.3,298.9,189.1z
		"/>
	<path class="st0" d="M146.7,95.1c0.1-2.5,0-4.8,0.2-7.2c0.9-12.7,9.3-21.2,21.9-21.8c5.5-0.3,11.2-0.1,16.5,1
		c8.5,1.8,15,9.8,16,18.4c0.3,3.1,0.3,6.1,0.5,9.6c6.2,0,12.3,0,18.4,0c23.2-0.1,46.4-0.1,69.7-0.2c4.4,0,7.7,2.4,8.6,6.2
		c0.9,3.5-1,7.4-4.5,9c-1.4,0.6-3.1,0.8-4.7,0.8c-67,0.2-134,0.4-201,0.6c-9.7,0-19.4,0.1-29.1,0.1c-3.8,0-7-1-8.7-4.7
		c-2.5-5.4,1.2-11.1,7.6-11.2c12.7-0.2,25.3-0.1,38-0.2c16,0,32-0.1,47.9-0.1C144.9,95.3,145.8,95.2,146.7,95.1z M185.6,95.1
		c0-2.5,0.1-4.8-0.1-6.9c-0.3-3.6-2.7-6.1-6.4-6.3c-3.3-0.2-6.6-0.1-9.9,0.1c-3.2,0.2-5.6,1.8-6.1,5c-0.5,2.6-0.3,5.4-0.4,8.2
		C170.6,95.2,178,95.2,185.6,95.1z"/>
</g>
</svg>
